<svg width="707" height="184" viewBox="0 0 707 184" fill="none" xmlns="http://www.w3.org/2000/svg">
<path d="M0.0999756 139.468V127.908C5.8989 130.373 12.1213 131.688 18.4216 131.781C21.186 131.912 23.9475 131.467 26.5299 130.471C29.1123 129.476 31.4589 127.954 33.4199 126.001C35.313 123.911 36.7709 121.465 37.7086 118.805C38.6463 116.146 39.0451 113.326 38.8817 110.511C38.8817 95.9657 28.8732 88.7026 8.85622 88.7218C6.47964 88.7394 4.10602 88.8937 1.74719 89.1842V42.282H50.7301V53.5235H13.1621V79.0408C25.5884 79.0408 35.2887 81.9307 42.2629 87.7104C45.7381 90.5799 48.4941 94.2225 50.3105 98.3471C52.1269 102.472 52.9535 106.964 52.7241 111.465C52.9105 115.621 52.1457 119.765 50.4881 123.581C48.8304 127.398 46.3237 130.785 43.1587 133.486C36.7722 138.832 27.9581 141.433 16.7166 141.433C11.1234 141.373 5.55278 140.714 0.0999756 139.468V139.468Z" fill="#E51A3C"/>
<path d="M110.059 91.1498L125.577 70.2273H112.313L103.412 82.0757L94.7137 70.2273H80.9003L96.2165 91.2076L80.4668 112.448H93.5867L102.834 100.166L111.793 112.448H125.693L110.059 91.1498Z" fill="#E51A3C"/>
<path d="M164.532 90.6584C167.027 92.9804 168.997 95.808 170.312 98.9522C171.464 102.474 171.983 106.173 171.844 109.876V139.988V143.571C171.505 146.549 172.037 149.56 173.375 152.241C175.428 153.802 178.015 154.487 180.571 154.148H184.761V167.731H179.531C171.757 167.731 166.093 165.679 162.481 161.257C158.868 156.836 157.048 149.9 157.048 140.393V110.309C157.246 107.332 156.699 104.353 155.458 101.64C154.806 100.646 153.956 99.7976 152.962 99.1463C151.968 98.4951 150.85 98.0552 149.679 97.8541C149.473 97.7608 149.26 97.6835 149.043 97.6229H148.465L147.569 97.3917V83.1737C148.122 82.5623 148.865 82.1551 149.679 82.0177C154.534 81.093 156.961 77.1917 156.961 70.3138V38.2076C156.961 21.3887 164.186 12.9793 178.635 12.9793H182.074C183.028 12.9244 183.974 13.1888 184.761 13.7306V27.2551H180.542C176.728 27.2551 174.3 28.0354 173.26 29.567C171.973 33.1861 171.48 37.0398 171.815 40.8663V71.5276C171.824 73.6439 171.689 75.7584 171.41 77.8563C171.175 79.5934 170.748 81.2991 170.139 82.9425C169.593 84.4285 168.823 85.8222 167.856 87.075C166.88 88.3852 165.765 89.5866 164.532 90.6584V90.6584Z" fill="#E51A3C"/>
<path d="M531.167 79.3877H512.904V97.6515H531.167V79.3877Z" fill="#E51A3C"/>
<path d="M587.837 132.185C585.034 132.349 582.227 131.933 579.592 130.963C576.957 129.994 574.55 128.491 572.521 126.55C570.619 124.436 569.154 121.966 568.211 119.282C567.269 116.599 566.868 113.755 567.03 110.916V69.1866H558.159V59.5056H567.03V46.6169L579.919 45.3743V59.5056H598.501V69.1866H579.919V108.575C579.919 117.861 583.936 122.504 591.97 122.504C594.067 122.449 596.151 122.158 598.183 121.637V130.538C594.822 131.541 591.343 132.095 587.837 132.185V132.185Z" fill="#E51A3C"/>
<path d="M624.856 130.538L604.512 59.5054H617.14L632.717 114.528L649.507 59.5054H662.395L677.105 114.528L694.964 59.5054H706.032L682.884 130.538H669.909L654.882 75.544L637.861 130.538H624.856Z" fill="#E51A3C"/>
<path d="M479.352 90.3116C476.954 87.8748 474.998 85.0389 473.573 81.9311C472.525 78.3973 472.037 74.7211 472.128 71.0363V40.8374L471.868 37.3985C472.233 34.411 471.668 31.3834 470.249 28.729C469.238 27.3996 466.868 26.7639 463.14 26.7639H458.979V13.1238H464.296C472.07 13.1238 477.734 15.1756 481.346 19.597C484.959 24.0185 486.779 30.9541 486.779 40.4617V70.6028C486.576 73.6399 487.101 76.6817 488.311 79.4747C488.972 80.4521 489.825 81.2843 490.819 81.9204C491.813 82.5564 492.926 82.9829 494.091 83.1737C494.296 83.267 494.509 83.3443 494.726 83.4049H495.304L496.2 83.6072V97.594C495.647 98.2054 494.904 98.6126 494.091 98.75C489.236 99.6747 486.808 103.605 486.808 110.541V142.329C486.808 159.148 479.555 167.557 465.048 167.557H461.638C460.706 167.604 459.785 167.35 459.008 166.835V153.513H463.227C467.071 153.513 469.498 152.761 470.51 151.201C471.521 149.64 472.041 145.941 472.041 139.93V109.356C471.907 105.526 472.485 101.704 473.746 98.0853C474.907 95.0503 476.839 92.3708 479.352 90.3116V90.3116Z" fill="#E51A3C"/>
<path d="M325.266 96.1198V184L383.872 87.7393L325.266 96.1198Z" fill="#E51A3C"/>
<path d="M326.768 89.8778L384.276 81.6707L347.315 32.3699L326.768 89.8778Z" fill="#E51A3C"/>
<path d="M401.384 14.4531L393.177 79.966L442.333 67.6841L401.384 14.4531Z" fill="#E51A3C"/>
<path d="M387.658 76.2089L395.749 11.3318L351.159 27.5727L387.658 76.2089Z" fill="#E51A3C"/>
<path d="M252.991 86.4968L206.84 74.9663L306.829 174.926L252.991 86.4968Z" fill="#E51A3C"/>
<path d="M319.313 96.1198L260.735 87.7393L319.313 184V96.1198Z" fill="#E51A3C"/>
<path d="M391.588 86.4968L337.75 174.955L437.739 74.9663L391.588 86.4968Z" fill="#E51A3C"/>
<path d="M255.505 7.43022L298.852 23.151H345.928L389.276 7.43022C345.291 -2.35695 299.692 -2.35695 255.707 7.43022H255.505Z" fill="#E51A3C"/>
<path d="M322.289 84.6758L342.142 29.104H302.465L322.289 84.6758Z" fill="#E51A3C"/>
<path d="M317.839 89.8778L297.292 32.3699L260.302 81.6707L317.839 89.8778Z" fill="#E51A3C"/>
<path d="M251.401 79.966L243.223 14.4531L202.274 67.6841L251.401 79.966Z" fill="#E51A3C"/>
<path d="M256.95 76.2089L293.42 27.5727L248.829 11.3318L256.95 76.2089Z" fill="#E51A3C"/>
</svg>
